PathFileType	4	(X/Y/Z)	subject01_walk1.trc
DataRate	CameraRate	NumFrames	NumMarkers	Units	OrigDataRate	OrigDataStartFrame	OrigNumFrames
60.00	60.00	       4	41	mm	60.00	676	       900
Frame#	Time	R.ASIS			L.ASIS			V.Sacral			R.Thigh.Upper			R.Thigh.Front			R.Thigh.Rear			L.Thigh.Upper			L.Thigh.Front			L.Thigh.Rear			R.Shank.Upper			R.Shank.Front			R.Shank.Rear			L.Shank.Upper			L.Shank.Front			L.Shank.Rear			R.Heel			R.Midfoot.Sup			R.Midfoot.Lat			R.Toe.Tip			L.Heel			L.Midfoot.Sup			L.Midfoot.Lat			L.Toe.Tip			Sternum			R.Acromium			L.Acromium			R.Bicep			L.Bicep			R.Elbow			L.Elbow			R.Wrist.Med			R.Wrist.Lat			L.Wrist.Med			L.Wrist.Lat			R.Toe.Lat			R.Toe.Med			L.Toe.Lat			L.Toe.Med			R.Temple			L.Temple			Top.Head			
		X1	Y1	Z1	X2	Y2	Z2	X3	Y3	Z3	X4	Y4	Z4	X5	Y5	Z5	X6	Y6	Z6	X7	Y7	Z7	X8	Y8	Z8	X9	Y9	Z9	X10	Y10	Z10	X11	Y11	Z11	X12	Y12	Z12	X13	Y13	Z13	X14	Y14	Z14	X15	Y15	Z15	X16	Y16	Z16	X17	Y17	Z17	X18	Y18	Z18	X19	Y19	Z19	X20	Y20	Z20	X21	Y21	Z21	X22	Y22	Z22	X23	Y23	Z23	X24	Y24	Z24	X25	Y25	Z25	X26	Y26	Z26	X27	Y27	Z27	X28	Y28	Z28	X29	Y29	Z29	X30	Y30	Z30	X31	Y31	Z31	X32	Y32	Z32	X33	Y33	Z33	X34	Y34	Z34	X35	Y35	Z35	X36	Y36	Z36	X37	Y37	Z37	X38	Y38	Z38	X39	Y39	Z39	X40	Y40	Z40	X41	Y41	Z41	

676	11.250000	634.457700	1066.874630	135.345090	655.468320	1063.736690	-123.618080	446.291560	1060.630000	-0.120190	614.576660	741.562870	196.454180	695.460210	680.950870	120.677580	619.645570	619.919800	197.894290	648.838560	757.243040	-171.053500	739.779540	737.231020	-105.839270	665.103330	651.440980	-151.741260	517.606570	504.921540	187.511690	544.416020	418.226200	145.562480	458.846280	441.173890	192.029880	675.817380	438.939120	-140.060440	721.292600	390.380580	-82.487690	656.576900	395.781070	-148.021090	188.204360	320.161960	88.893210	267.042020	193.720550	73.420620	230.678450	197.170090	173.425830	301.532990	55.207870	122.003660	577.767330	75.556050	-43.587200	745.399290	75.821670	-10.445150	732.896850	68.836950	-108.201720	858.917790	52.331280	-37.928970	665.249510	1373.419800	-17.368270	565.348080	1466.690800	186.858180	603.181460	1473.872440	-228.908080	582.246150	1265.190550	240.030240	621.645630	1233.813110	-253.756100	543.664000	1161.860840	274.070190	575.745360	1137.680540	-291.763520	695.936040	937.835690	272.054140	660.345950	923.650700	324.661770	677.643680	909.697450	-241.231280	637.700010	900.385560	-305.210820	245.949200	108.138400	192.954880	277.126950	100.960560	88.170830	794.894350	42.153650	-116.386990	808.623720	53.264310	-13.310810	713.954590	1627.556150	60.926650	720.765010	1635.190800	-78.905750	661.357600	1796.421390	0.707380	
677	11.267000	635.178470	1071.593260	133.581390	654.247250	1065.948120	-126.464300	445.408660	1063.523930	-1.122730	628.831120	747.444400	194.963170	707.071110	688.719600	120.288460	634.896790	625.246580	197.480730	641.641240	758.898800	-172.794890	731.564820	736.835020	-107.043020	654.880920	652.692690	-152.710530	537.960270	511.522000	185.272550	564.518920	423.132750	144.795010	478.264130	448.084260	189.710020	660.096620	438.925110	-142.326890	705.027530	390.635680	-84.559170	639.248290	396.180910	-148.584780	207.557680	322.897220	85.691300	289.620940	198.486160	74.154510	253.543440	203.900760	173.886900	328.195160	62.885210	126.791200	558.879940	75.796590	-43.959770	726.659480	75.876540	-11.060780	713.974730	68.551080	-108.484700	839.746150	51.514880	-38.356330	663.407840	1376.542600	-18.645290	561.834470	1469.188110	185.564250	602.909060	1477.710210	-229.425190	578.161990	1268.348510	239.354740	628.436460	1237.713620	-254.806140	537.733220	1165.000730	272.428800	582.246340	1141.857910	-294.665220	686.644230	938.356930	273.886840	649.821660	925.539860	326.084870	687.599370	914.764160	-241.191930	648.552980	904.643860	-304.537480	272.891570	115.630800	196.624910	302.409940	106.692150	91.673160	777.137510	42.914260	-115.510030	789.531250	52.798440	-13.870720	710.190190	1630.057740	59.487750	719.655760	1638.225220	-79.337070	659.836910	1799.820310	-0.606240	
678	11.283000	634.671200	1075.964600	131.627780	652.316890	1067.666750	-128.790880	444.298130	1066.340700	-1.834260	637.833620	752.599120	194.345210	719.540950	696.395260	117.605090	649.008540	630.278500	196.615390	633.361510	760.544310	-174.502750	724.596560	736.011600	-107.894970	644.058650	653.226560	-154.167270	556.954160	516.059390	183.703250	583.984620	428.433750	144.166030	498.738950	451.628390	188.671080	643.874510	439.296450	-143.249340	689.094600	390.501920	-85.770300	621.811580	396.697780	-149.027070	227.850880	321.714570	83.047540	314.276820	200.502300	74.686780	278.541870	206.929180	174.302860	358.166260	68.316800	130.967450	540.012820	76.020480	-44.219350	707.994810	76.038550	-11.393130	694.991760	68.276310	-108.820690	820.777160	50.932580	-38.668700	663.700870	1380.293820	-19.111150	558.424320	1471.772220	185.026890	604.701660	1481.259640	-230.639510	571.502690	1270.752440	238.426040	631.708130	1241.920170	-255.061970	531.316960	1168.028200	270.931030	587.801030	1145.256100	-295.611630	676.833500	939.985720	275.038640	636.938420	928.067810	326.725980	697.608700	920.170650	-240.847320	659.576780	909.771480	-305.189090	300.077910	119.114090	198.941560	331.034240	109.507500	94.445210	758.337160	42.917160	-115.510090	770.404360	52.315350	-14.389260	710.861080	1633.617430	59.608300	718.586000	1640.837280	-79.859630	658.181580	1802.766480	-1.261020	
679	11.300000	634.127140	1079.276370	128.819140	650.177980	1069.534180	-131.623830	442.990110	1068.914310	-2.377990	647.293330	756.651730	192.530040	729.477360	704.596010	116.338900	663.796140	636.041930	195.481160	624.113340	762.085210	-176.138720	715.647460	735.730650	-108.640210	631.052000	652.905030	-155.376680	575.072510	519.513920	183.462010	604.786500	433.371490	141.704940	518.640140	453.578220	188.164920	628.812990	439.616210	-143.610700	671.009090	390.732820	-86.653300	604.395080	397.251740	-149.381840	249.257400	316.777680	81.275140	340.737610	199.660540	75.218290	305.249080	206.142790	174.669630	390.794190	70.980220	134.194210	521.049740	76.308470	-44.249950	689.383060	76.226390	-11.581670	675.947570	68.017910	-109.184940	802.000550	50.575600	-38.914860	661.522830	1382.700560	-19.431650	554.438960	1474.134030	183.437970	605.040340	1484.935910	-230.783980	566.396730	1273.021970	237.630370	634.557860	1245.628170	-256.066130	524.442500	1170.888180	269.532040	593.466920	1147.586910	-296.100770	667.248230	941.467470	276.682800	626.556210	930.235290	328.030270	707.265750	925.973570	-239.975650	670.200680	914.776920	-305.520480	327.533050	120.314080	199.883130	362.445980	109.371310	96.235640	739.009770	42.501610	-115.931780	751.453740	51.924150	-14.732720	709.185420	1636.303340	59.477620	717.003420	1643.416990	-80.558290	657.348210	1805.258540	-1.465250	
